<svg width="279" height="75" viewBox="0 0 279 75" fill="none" xmlns="http://www.w3.org/2000/svg">
<path d="M263.01 49.1446C264.996 49.1446 266.563 48.7754 267.712 48.0369C268.877 47.2821 269.459 46.281 269.459 45.0338C269.459 44.2462 269.312 43.5651 269.016 42.9908C268.737 42.4164 268.155 41.8995 267.268 41.44C266.382 40.9805 265.02 40.521 263.182 40.0615C261.394 39.6185 259.835 39.1097 258.505 38.5354C257.193 37.9446 256.167 37.1815 255.428 36.2462C254.706 35.3108 254.345 34.0964 254.345 32.6031C254.345 31.1426 254.756 29.8872 255.576 28.8369C256.413 27.7703 257.57 26.958 259.047 26.4C260.524 25.8256 262.239 25.5385 264.192 25.5385C266.276 25.5385 268.089 25.8174 269.632 26.3754C271.191 26.9169 272.512 27.5897 273.595 28.3938L271.773 31.2C270.788 30.5272 269.705 29.9774 268.524 29.5508C267.342 29.1077 265.915 28.8862 264.241 28.8862C262.206 28.8862 260.762 29.2062 259.908 29.8462C259.055 30.4697 258.628 31.2821 258.628 32.2831C258.628 33.0379 258.834 33.6697 259.244 34.1785C259.671 34.6708 260.384 35.1221 261.385 35.5323C262.386 35.9262 263.765 36.361 265.521 36.8369C267.211 37.28 268.68 37.8133 269.927 38.4369C271.191 39.0605 272.175 39.881 272.881 40.8985C273.586 41.9159 273.939 43.2287 273.939 44.8369C273.939 46.6749 273.414 48.1682 272.364 49.3169C271.314 50.4492 269.952 51.2779 268.278 51.8031C266.62 52.3118 264.864 52.5662 263.01 52.5662C260.663 52.5662 258.661 52.2297 257.004 51.5569C255.363 50.8677 253.984 50.039 252.868 49.0708L255.232 46.3385C256.249 47.1754 257.414 47.8564 258.727 48.3815C260.056 48.8903 261.484 49.1446 263.01 49.1446Z" fill="#FF383C"/>
<path d="M245.245 50.6954C244.359 51.2862 243.284 51.7456 242.02 52.0738C240.757 52.402 239.518 52.5662 238.303 52.5662C235.514 52.5662 233.364 51.8359 231.854 50.3754C230.344 48.9149 229.59 47.0359 229.59 44.7385V29.28H223.633V26.08H229.59V20.1969L233.725 19.7046V26.08H242.685L242.193 29.28H233.725V44.6892C233.725 46.1333 234.102 47.2328 234.857 47.9877C235.628 48.7426 236.9 49.12 238.673 49.12C239.641 49.12 240.535 49.0051 241.356 48.7754C242.176 48.5456 242.939 48.2503 243.645 47.8892L245.245 50.6954Z" fill="#FF383C"/>
<path d="M208.255 26.08V48.7262H215.566V52H196.12V48.7262H204.12V29.3538H196.366V26.08H208.255ZM204.957 13.9446C205.876 13.9446 206.606 14.2236 207.148 14.7815C207.705 15.3395 207.984 16.0205 207.984 16.8246C207.984 17.6615 207.705 18.3672 207.148 18.9415C206.606 19.4995 205.876 19.7785 204.957 19.7785C204.087 19.7785 203.373 19.4995 202.815 18.9415C202.257 18.3672 201.978 17.6615 201.978 16.8246C201.978 16.0205 202.257 15.3395 202.815 14.7815C203.373 14.2236 204.087 13.9446 204.957 13.9446Z" fill="#FF383C"/>
<path d="M181.112 15.1262L185.247 15.6431V52H181.629L181.235 48.5785C180.267 49.9569 179.151 50.9662 177.887 51.6062C176.64 52.2462 175.302 52.5662 173.875 52.5662C171.627 52.5662 169.772 52 168.312 50.8677C166.851 49.7354 165.768 48.16 165.062 46.1415C164.357 44.1067 164.004 41.7518 164.004 39.0769C164.004 36.4841 164.406 34.1703 165.21 32.1354C166.014 30.0841 167.171 28.4759 168.681 27.3108C170.207 26.1292 172.037 25.5385 174.17 25.5385C175.663 25.5385 176.976 25.801 178.109 26.3262C179.241 26.8349 180.242 27.5897 181.112 28.5908V15.1262ZM175.253 28.8615C173.087 28.8615 171.421 29.7067 170.256 31.3969C169.091 33.0872 168.509 35.6472 168.509 39.0769C168.509 41.3087 168.746 43.1795 169.222 44.6892C169.698 46.199 170.396 47.3313 171.315 48.0862C172.25 48.841 173.391 49.2185 174.736 49.2185C176.213 49.2185 177.469 48.8 178.502 47.9631C179.553 47.1262 180.422 46.1826 181.112 45.1323V32.1846C180.406 31.1344 179.553 30.3221 178.552 29.7477C177.551 29.1569 176.451 28.8615 175.253 28.8615Z" fill="#FF383C"/>
<path d="M141.587 21.6V33.0215H154.14V36.5415H141.587V48.5785H156.996V52H137.303V18.1046H156.553L156.06 21.6H141.587Z" fill="#FF383C"/>
<path d="M106.541 52V26.08H110.061L110.381 29.6738C111.432 28.3446 112.745 27.3272 114.32 26.6215C115.912 25.8995 117.454 25.5385 118.948 25.5385C121.491 25.5385 123.337 26.2113 124.486 27.5569C125.651 28.9026 126.234 30.7733 126.234 33.1692V52H122.098V36.2215C122.098 34.4492 122 33.0215 121.803 31.9385C121.606 30.839 121.196 30.0431 120.572 29.5508C119.949 29.0421 118.98 28.7877 117.668 28.7877C116.65 28.7877 115.69 29.0092 114.788 29.4523C113.901 29.8954 113.106 30.4533 112.4 31.1262C111.711 31.7826 111.136 32.4472 110.677 33.12V52H106.541Z" fill="#34C759"/>
<path d="M95.5702 46.3385C95.5702 47.3723 95.7425 48.1272 96.0871 48.6031C96.4317 49.079 96.9651 49.4318 97.6871 49.6615L96.6779 52.5662C95.562 52.4185 94.5856 52.0656 93.7487 51.5077C92.9117 50.9333 92.3046 50.0718 91.9271 48.9231C90.9917 50.121 89.8266 51.0318 88.4317 51.6554C87.0369 52.2626 85.4943 52.5662 83.804 52.5662C81.2112 52.5662 79.1681 51.8359 77.6748 50.3754C76.1815 48.9149 75.4348 46.9785 75.4348 44.5662C75.4348 41.8913 76.4769 39.84 78.561 38.4123C80.6451 36.9846 83.6563 36.2708 87.5948 36.2708H91.4102V34.1046C91.4102 32.2338 90.8605 30.9128 89.761 30.1415C88.6779 29.3538 87.1681 28.96 85.2317 28.96C84.3784 28.96 83.3774 29.0667 82.2287 29.28C81.0799 29.4769 79.8328 29.8133 78.4871 30.2892L77.404 27.1631C78.9958 26.5723 80.4892 26.1538 81.884 25.9077C83.2789 25.6615 84.6081 25.5385 85.8717 25.5385C89.1046 25.5385 91.5251 26.2933 93.1333 27.8031C94.7579 29.2964 95.5702 31.3313 95.5702 33.9077V46.3385ZM84.8625 49.4154C86.1425 49.4154 87.3651 49.0954 88.5302 48.4554C89.6953 47.799 90.6553 46.8964 91.4102 45.7477V39.0769H87.6687C84.8133 39.0769 82.7948 39.5692 81.6133 40.5538C80.4481 41.5385 79.8656 42.8595 79.8656 44.5169C79.8656 46.1251 80.2758 47.3477 81.0963 48.1846C81.9333 49.0051 83.1887 49.4154 84.8625 49.4154Z" fill="#34C759"/>
<path d="M50.7282 40.5046C50.8102 42.5067 51.1959 44.1477 51.8851 45.4277C52.5743 46.6913 53.4851 47.6267 54.6174 48.2338C55.7497 48.8246 56.9805 49.12 58.3097 49.12C59.6389 49.12 60.8369 48.9231 61.9036 48.5292C62.9866 48.1354 64.0943 47.5528 65.2266 46.7815L67.1713 49.5138C65.9569 50.4656 64.5702 51.2123 63.0113 51.7538C61.4687 52.2954 59.8851 52.5662 58.2605 52.5662C55.7497 52.5662 53.6082 52 51.8359 50.8677C50.0636 49.7354 48.7097 48.16 47.7743 46.1415C46.8554 44.1067 46.3959 41.7518 46.3959 39.0769C46.3959 36.4513 46.8636 34.121 47.799 32.0862C48.7343 30.0513 50.0472 28.4513 51.7374 27.2862C53.4277 26.121 55.4215 25.5385 57.7189 25.5385C59.9015 25.5385 61.7805 26.0554 63.3559 27.0892C64.9313 28.1067 66.1374 29.5672 66.9743 31.4708C67.8277 33.3579 68.2543 35.6144 68.2543 38.24C68.2543 38.6831 68.2461 39.1015 68.2297 39.4954C68.2133 39.8728 68.1887 40.2092 68.1559 40.5046H50.7282ZM57.7682 28.9354C55.8482 28.9354 54.24 29.6164 52.9436 30.9785C51.6636 32.3405 50.9333 34.4492 50.7528 37.3046H64.2666C64.2174 34.5313 63.6102 32.4472 62.4451 31.0523C61.28 29.641 59.721 28.9354 57.7682 28.9354Z" fill="#34C759"/>
<path d="M19.6708 52V18.1046H23.9539V48.1846H39.4123L38.92 52H19.6708Z" fill="#34C759"/>
<path d="M68 1.5C86.5736 1.5 103.315 5.6548 115.359 12.2969C127.457 18.9682 134.5 27.9425 134.5 37.5C134.5 47.0575 127.457 56.0318 115.359 62.7031C103.315 69.3452 86.5736 73.5 68 73.5C49.4264 73.5 32.6849 69.3452 20.6406 62.7031C8.54337 56.0318 1.5 47.0575 1.5 37.5C1.5 27.9425 8.54337 18.9682 20.6406 12.2969C32.6849 5.6548 49.4264 1.5 68 1.5Z" stroke="#34C759" stroke-width="3"/>
<line x1="136" y1="41.5" x2="279" y2="41.5" stroke="#FF383C" stroke-width="3"/>
</svg>
